# xmcd
#
# Track frame offsets:
#	150
#	11950
#	25142
#	36035
#	49342
#	60360
#	78465
#	89157
#	105245
#	117610
#	136662
#
# Disc length: 2020 seconds
#
# Revision: 1
# Processed by: cddbd v1.5.2PL0 Copyright (c) Steve Scherf et al.
# Submitted via: audiograbber 1.81.02
#
DISCID=8c07e20b
DTITLE=Lynch, Claire - Out in the Country
DYEAR=2000
DGENRE=Traditional Country
TTITLE0=I Can't Get You off of My Mind
TTITLE1=I'll Never Grow Tired of You
TTITLE2=Somebody Loves You Honey
TTITLE3=He Rode All the Way to Texas
TTITLE4=Livin' in the Name of Love
TTITLE5=Breakin' It
TTITLE6=Heart Made of Stone
TTITLE7=Old By and By
TTITLE8=Listen to a Country Song
TTITLE9=Once in a Lifetime
TTITLE10=Feelings of Love
EXTD=Copper Creek Records
EXTT0=
EXTT1=
EXTT2=
EXTT3=
EXTT4=
EXTT5=
EXTT6=
EXTT7=
EXTT8=
EXTT9=
EXTT10=
PLAYORDER=
